<?xml version="1.0" encoding="UTF-8" standalone="no"?>
<!DOCTYPE svg PUBLIC "-//W3C//DTD SVG 1.1//EN"
 "http://www.w3.org/Graphics/SVG/1.1/DTD/svg11.dtd">
<!-- Generated by graphviz version 2.44.1 (20200629.0846)
 -->
<!-- Title: dependency&#45;cruiser output Pages: 1 -->
<svg width="557pt" height="649pt"
 viewBox="0.00 0.00 557.00 649.00" xmlns="http://www.w3.org/2000/svg" xmlns:xlink="http://www.w3.org/1999/xlink">
<g id="graph0" class="graph" transform="scale(1 1) rotate(0) translate(4 645)">
<title>dependency&#45;cruiser output</title>
<polygon fill="white" stroke="transparent" points="-4,4 -4,-645 553,-645 553,4 -4,4"/>
<g id="clust1" class="cluster">
<title>cluster_..</title>
<path fill="#ffffff" stroke="black" stroke-width="2" d="M116,-82C116,-82 223,-82 223,-82 229,-82 235,-88 235,-94 235,-94 235,-186 235,-186 235,-192 229,-198 223,-198 223,-198 116,-198 116,-198 110,-198 104,-192 104,-186 104,-186 104,-94 104,-94 104,-88 110,-82 116,-82"/>
<text text-anchor="middle" x="169.5" y="-186.8" font-family="Helvetica,sans-Serif" font-weight="bold" font-size="9.00">..</text>
</g>
<g id="clust2" class="cluster">
<title>cluster_../common</title>
<path fill="#ffffff" stroke="black" stroke-width="2" d="M124,-90C124,-90 215,-90 215,-90 221,-90 227,-96 227,-102 227,-102 227,-160 227,-160 227,-166 221,-172 215,-172 215,-172 124,-172 124,-172 118,-172 112,-166 112,-160 112,-160 112,-102 112,-102 112,-96 118,-90 124,-90"/>
<text text-anchor="middle" x="169.5" y="-160.8" font-family="Helvetica,sans-Serif" font-weight="bold" font-size="9.00">common</text>
</g>
<!-- ../common/ConnectedCircle.tsx -->
<g id="node1" class="node">
<title>../common/ConnectedCircle.tsx</title>
<g id="a_node1"><a xlink:href="../common/ConnectedCircle.tsx" xlink:title="ConnectedCircle.tsx">
<path fill="#bbfeff" stroke="black" d="M213,-146C213,-146 126,-146 126,-146 123,-146 120,-143 120,-140 120,-140 120,-134 120,-134 120,-131 123,-128 126,-128 126,-128 213,-128 213,-128 216,-128 219,-131 219,-134 219,-134 219,-140 219,-140 219,-143 216,-146 213,-146"/>
<text text-anchor="middle" x="169.5" y="-134.8" font-family="Helvetica,sans-Serif" font-size="9.00">ConnectedCircle.tsx</text>
</a>
</g>
</g>
<!-- ../common/SimpleSelect.tsx -->
<g id="node2" class="node">
<title>../common/SimpleSelect.tsx</title>
<g id="a_node2"><a xlink:href="../common/SimpleSelect.tsx" xlink:title="SimpleSelect.tsx">
<path fill="#bbfeff" stroke="black" d="M205.5,-116C205.5,-116 133.5,-116 133.5,-116 130.5,-116 127.5,-113 127.5,-110 127.5,-110 127.5,-104 127.5,-104 127.5,-101 130.5,-98 133.5,-98 133.5,-98 205.5,-98 205.5,-98 208.5,-98 211.5,-101 211.5,-104 211.5,-104 211.5,-110 211.5,-110 211.5,-113 208.5,-116 205.5,-116"/>
<text text-anchor="middle" x="169.5" y="-104.8" font-family="Helvetica,sans-Serif" font-size="9.00">SimpleSelect.tsx</text>
</a>
</g>
</g>
<!-- ChromaticCircle.tsx -->
<g id="node3" class="node">
<title>ChromaticCircle.tsx</title>
<g id="a_node3"><a xlink:href="ChromaticCircle.tsx" xlink:title="ChromaticCircle.tsx">
<path fill="#bbfeff" stroke="black" d="M90,-158C90,-158 6,-158 6,-158 3,-158 0,-155 0,-152 0,-152 0,-146 0,-146 0,-143 3,-140 6,-140 6,-140 90,-140 90,-140 93,-140 96,-143 96,-146 96,-146 96,-152 96,-152 96,-155 93,-158 90,-158"/>
<text text-anchor="middle" x="48" y="-146.8" font-family="Helvetica,sans-Serif" font-size="9.00">ChromaticCircle.tsx</text>
</a>
</g>
</g>
<!-- ChromaticCircle.tsx&#45;&gt;../common/ConnectedCircle.tsx -->
<g id="edge1" class="edge">
<title>ChromaticCircle.tsx&#45;&gt;../common/ConnectedCircle.tsx</title>
<path fill="none" stroke="#000000" stroke-width="2" stroke-opacity="0.200000" d="M96.23,-144.26C101.88,-143.69 107.69,-143.11 113.44,-142.53"/>
<polygon fill="#000000" fill-opacity="0.200000" stroke="#000000" stroke-width="2" stroke-opacity="0.200000" points="113.89,-144.59 119.65,-141.91 113.47,-140.42 113.89,-144.59"/>
</g>
<!-- getNodes.ts -->
<g id="node4" class="node">
<title>getNodes.ts</title>
<g id="a_node4"><a xlink:href="getNodes.ts" xlink:title="getNodes.ts">
<path fill="#ddfeff" stroke="black" d="M196,-224C196,-224 143,-224 143,-224 140,-224 137,-221 137,-218 137,-218 137,-212 137,-212 137,-209 140,-206 143,-206 143,-206 196,-206 196,-206 199,-206 202,-209 202,-212 202,-212 202,-218 202,-218 202,-221 199,-224 196,-224"/>
<text text-anchor="middle" x="169.5" y="-212.8" font-family="Helvetica,sans-Serif" font-size="9.00">getNodes.ts</text>
</a>
</g>
</g>
<!-- ChromaticCircle.tsx&#45;&gt;getNodes.ts -->
<g id="edge2" class="edge">
<title>ChromaticCircle.tsx&#45;&gt;getNodes.ts</title>
<path fill="none" stroke="#000000" stroke-width="2" stroke-opacity="0.200000" d="M65.62,-158.18C86.75,-169.85 123.31,-190.04 146.67,-202.95"/>
<polygon fill="#000000" fill-opacity="0.200000" stroke="#000000" stroke-width="2" stroke-opacity="0.200000" points="145.76,-204.84 152.03,-205.9 147.79,-201.16 145.76,-204.84"/>
</g>
<!-- HarmonicCircle.tsx -->
<g id="node5" class="node">
<title>HarmonicCircle.tsx</title>
<g id="a_node5"><a xlink:href="HarmonicCircle.tsx" xlink:title="HarmonicCircle.tsx">
<path fill="#bbfeff" stroke="black" d="M89,-201C89,-201 7,-201 7,-201 4,-201 1,-198 1,-195 1,-195 1,-189 1,-189 1,-186 4,-183 7,-183 7,-183 89,-183 89,-183 92,-183 95,-186 95,-189 95,-189 95,-195 95,-195 95,-198 92,-201 89,-201"/>
<text text-anchor="middle" x="48" y="-189.8" font-family="Helvetica,sans-Serif" font-size="9.00">HarmonicCircle.tsx</text>
</a>
</g>
</g>
<!-- HarmonicCircle.tsx&#45;&gt;../common/ConnectedCircle.tsx -->
<g id="edge3" class="edge">
<title>HarmonicCircle.tsx&#45;&gt;../common/ConnectedCircle.tsx</title>
<path fill="none" stroke="#000000" stroke-width="2" stroke-opacity="0.200000" d="M68.73,-182.92C89.06,-173.56 120.82,-158.95 143.03,-148.72"/>
<polygon fill="#000000" fill-opacity="0.200000" stroke="#000000" stroke-width="2" stroke-opacity="0.200000" points="144.17,-150.51 148.74,-146.1 142.41,-146.7 144.17,-150.51"/>
</g>
<!-- HarmonicCircle.tsx&#45;&gt;getNodes.ts -->
<g id="edge4" class="edge">
<title>HarmonicCircle.tsx&#45;&gt;getNodes.ts</title>
<path fill="none" stroke="#000000" stroke-width="2" stroke-opacity="0.200000" d="M95.2,-200.89C106.95,-203.15 119.44,-205.56 130.71,-207.73"/>
<polygon fill="#000000" fill-opacity="0.200000" stroke="#000000" stroke-width="2" stroke-opacity="0.200000" points="130.55,-209.83 136.84,-208.91 131.34,-205.71 130.55,-209.83"/>
</g>
<!-- ScalePicker.tsx -->
<g id="node6" class="node">
<title>ScalePicker.tsx</title>
<g id="a_node6"><a xlink:href="ScalePicker.tsx" xlink:title="ScalePicker.tsx">
<path fill="#bbfeff" stroke="black" d="M81.5,-60C81.5,-60 14.5,-60 14.5,-60 11.5,-60 8.5,-57 8.5,-54 8.5,-54 8.5,-48 8.5,-48 8.5,-45 11.5,-42 14.5,-42 14.5,-42 81.5,-42 81.5,-42 84.5,-42 87.5,-45 87.5,-48 87.5,-48 87.5,-54 87.5,-54 87.5,-57 84.5,-60 81.5,-60"/>
<text text-anchor="middle" x="48" y="-48.8" font-family="Helvetica,sans-Serif" font-size="9.00">ScalePicker.tsx</text>
</a>
</g>
</g>
<!-- ScalePicker.tsx&#45;&gt;../common/SimpleSelect.tsx -->
<g id="edge5" class="edge">
<title>ScalePicker.tsx&#45;&gt;../common/SimpleSelect.tsx</title>
<path fill="none" stroke="#000000" stroke-width="2" stroke-opacity="0.200000" d="M65.17,-60.01C76.03,-65.94 90.72,-73.74 104,-80 115.59,-85.47 128.6,-91.02 139.87,-95.66"/>
<polygon fill="#000000" fill-opacity="0.200000" stroke="#000000" stroke-width="2" stroke-opacity="0.200000" points="139.25,-97.67 145.6,-97.99 140.83,-93.78 139.25,-97.67"/>
</g>
<!-- allPitches.ts -->
<g id="node7" class="node">
<title>allPitches.ts</title>
<g id="a_node7"><a xlink:href="allPitches.ts" xlink:title="allPitches.ts">
<path fill="#ddfeff" stroke="black" d="M196,-74C196,-74 143,-74 143,-74 140,-74 137,-71 137,-68 137,-68 137,-62 137,-62 137,-59 140,-56 143,-56 143,-56 196,-56 196,-56 199,-56 202,-59 202,-62 202,-62 202,-68 202,-68 202,-71 199,-74 196,-74"/>
<text text-anchor="middle" x="169.5" y="-62.8" font-family="Helvetica,sans-Serif" font-size="9.00">allPitches.ts</text>
</a>
</g>
</g>
<!-- ScalePicker.tsx&#45;&gt;allPitches.ts -->
<g id="edge6" class="edge">
<title>ScalePicker.tsx&#45;&gt;allPitches.ts</title>
<path fill="none" stroke="#000000" stroke-width="2" stroke-opacity="0.200000" d="M87.8,-55.55C101.51,-57.15 116.91,-58.96 130.55,-60.55"/>
<polygon fill="#000000" fill-opacity="0.200000" stroke="#000000" stroke-width="2" stroke-opacity="0.200000" points="130.47,-62.66 136.68,-61.27 130.96,-58.49 130.47,-62.66"/>
</g>
<!-- byNoteChroma.ts -->
<g id="node8" class="node">
<title>byNoteChroma.ts</title>
<g id="a_node8"><a xlink:href="byNoteChroma.ts" xlink:title="byNoteChroma.ts">
<path fill="#ddfeff" stroke="black" d="M330,-61C330,-61 254,-61 254,-61 251,-61 248,-58 248,-55 248,-55 248,-49 248,-49 248,-46 251,-43 254,-43 254,-43 330,-43 330,-43 333,-43 336,-46 336,-49 336,-49 336,-55 336,-55 336,-58 333,-61 330,-61"/>
<text text-anchor="middle" x="292" y="-49.8" font-family="Helvetica,sans-Serif" font-size="9.00">byNoteChroma.ts</text>
</a>
</g>
</g>
<!-- ScalePicker.tsx&#45;&gt;byNoteChroma.ts -->
<g id="edge7" class="edge">
<title>ScalePicker.tsx&#45;&gt;byNoteChroma.ts</title>
<path fill="none" stroke="#000000" stroke-width="2" stroke-opacity="0.200000" d="M87.76,-50.21C93.21,-50.12 98.75,-50.05 104,-50 162.22,-49.47 176.79,-48.96 235,-50 237.22,-50.04 239.49,-50.09 241.79,-50.14"/>
<polygon fill="#000000" fill-opacity="0.200000" stroke="#000000" stroke-width="2" stroke-opacity="0.200000" points="241.84,-52.25 247.9,-50.31 241.95,-48.05 241.84,-52.25"/>
</g>
<!-- simplifyScale.ts -->
<g id="node9" class="node">
<title>simplifyScale.ts</title>
<g id="a_node9"><a xlink:href="simplifyScale.ts" xlink:title="simplifyScale.ts">
<path fill="#ddfeff" stroke="black" d="M203.5,-18C203.5,-18 135.5,-18 135.5,-18 132.5,-18 129.5,-15 129.5,-12 129.5,-12 129.5,-6 129.5,-6 129.5,-3 132.5,0 135.5,0 135.5,0 203.5,0 203.5,0 206.5,0 209.5,-3 209.5,-6 209.5,-6 209.5,-12 209.5,-12 209.5,-15 206.5,-18 203.5,-18"/>
<text text-anchor="middle" x="169.5" y="-6.8" font-family="Helvetica,sans-Serif" font-size="9.00">simplifyScale.ts</text>
</a>
</g>
</g>
<!-- ScalePicker.tsx&#45;&gt;simplifyScale.ts -->
<g id="edge8" class="edge">
<title>ScalePicker.tsx&#45;&gt;simplifyScale.ts</title>
<path fill="none" stroke="#000000" stroke-width="2" stroke-opacity="0.200000" d="M68.08,-41.89C78.54,-37.1 91.83,-31.33 104,-27 111.33,-24.39 119.24,-21.92 126.92,-19.68"/>
<polygon fill="#000000" fill-opacity="0.200000" stroke="#000000" stroke-width="2" stroke-opacity="0.200000" points="127.54,-21.69 132.74,-18.02 126.39,-17.65 127.54,-21.69"/>
</g>
<!-- allPitches.ts&#45;&gt;byNoteChroma.ts -->
<g id="edge9" class="edge">
<title>allPitches.ts&#45;&gt;byNoteChroma.ts</title>
<path fill="none" stroke="#000000" stroke-width="2" stroke-opacity="0.200000" d="M202.16,-61.58C214.25,-60.28 228.35,-58.76 241.7,-57.32"/>
<polygon fill="#000000" fill-opacity="0.200000" stroke="#000000" stroke-width="2" stroke-opacity="0.200000" points="242.03,-59.4 247.77,-56.66 241.58,-55.22 242.03,-59.4"/>
</g>
<!-- totalAccidentals.ts -->
<g id="node41" class="node">
<title>totalAccidentals.ts</title>
<g id="a_node41"><a xlink:href="totalAccidentals.ts" xlink:title="totalAccidentals.ts">
<path fill="#ddfeff" stroke="black" d="M331,-18C331,-18 253,-18 253,-18 250,-18 247,-15 247,-12 247,-12 247,-6 247,-6 247,-3 250,0 253,0 253,0 331,0 331,0 334,0 337,-3 337,-6 337,-6 337,-12 337,-12 337,-15 334,-18 331,-18"/>
<text text-anchor="middle" x="292" y="-6.8" font-family="Helvetica,sans-Serif" font-size="9.00">totalAccidentals.ts</text>
</a>
</g>
</g>
<!-- simplifyScale.ts&#45;&gt;totalAccidentals.ts -->
<g id="edge42" class="edge">
<title>simplifyScale.ts&#45;&gt;totalAccidentals.ts</title>
<path fill="none" stroke="#000000" stroke-width="2" stroke-opacity="0.200000" d="M209.62,-9C219.5,-9 230.25,-9 240.6,-9"/>
<polygon fill="#000000" fill-opacity="0.200000" stroke="#000000" stroke-width="2" stroke-opacity="0.200000" points="240.64,-11.1 246.64,-9 240.64,-6.9 240.64,-11.1"/>
</g>
<!-- byNoteCount.ts -->
<g id="node10" class="node">
<title>byNoteCount.ts</title>
<g id="a_node10"><a xlink:href="byNoteCount.ts" xlink:title="byNoteCount.ts">
<path fill="#ccffcc" stroke="black" d="M82,-235C82,-235 14,-235 14,-235 11,-235 8,-232 8,-229 8,-229 8,-223 8,-223 8,-220 11,-217 14,-217 14,-217 82,-217 82,-217 85,-217 88,-220 88,-223 88,-223 88,-229 88,-229 88,-232 85,-235 82,-235"/>
<text text-anchor="middle" x="48" y="-223.8" font-family="Helvetica,sans-Serif" font-size="9.00">byNoteCount.ts</text>
</a>
</g>
</g>
<!-- bySetNum.ts -->
<g id="node11" class="node">
<title>bySetNum.ts</title>
<g id="a_node11"><a xlink:href="bySetNum.ts" xlink:title="bySetNum.ts">
<path fill="#ccffcc" stroke="black" d="M76,-267C76,-267 20,-267 20,-267 17,-267 14,-264 14,-261 14,-261 14,-255 14,-255 14,-252 17,-249 20,-249 20,-249 76,-249 76,-249 79,-249 82,-252 82,-255 82,-255 82,-261 82,-261 82,-264 79,-267 76,-267"/>
<text text-anchor="middle" x="48" y="-255.8" font-family="Helvetica,sans-Serif" font-size="9.00">bySetNum.ts</text>
</a>
</g>
</g>
<!-- chordChroma.ts -->
<g id="node12" class="node">
<title>chordChroma.ts</title>
<g id="a_node12"><a xlink:href="chordChroma.ts" xlink:title="chordChroma.ts">
<path fill="#ddfeff" stroke="black" d="M438,-626C438,-626 368,-626 368,-626 365,-626 362,-623 362,-620 362,-620 362,-614 362,-614 362,-611 365,-608 368,-608 368,-608 438,-608 438,-608 441,-608 444,-611 444,-614 444,-614 444,-620 444,-620 444,-623 441,-626 438,-626"/>
<text text-anchor="middle" x="403" y="-614.8" font-family="Helvetica,sans-Serif" font-size="9.00">chordChroma.ts</text>
</a>
</g>
</g>
<!-- chordScales.ts -->
<g id="node13" class="node">
<title>chordScales.ts</title>
<g id="a_node13"><a xlink:href="chordScales.ts" xlink:title="chordScales.ts">
<path fill="#ccffcc" stroke="black" d="M80.5,-478C80.5,-478 15.5,-478 15.5,-478 12.5,-478 9.5,-475 9.5,-472 9.5,-472 9.5,-466 9.5,-466 9.5,-463 12.5,-460 15.5,-460 15.5,-460 80.5,-460 80.5,-460 83.5,-460 86.5,-463 86.5,-466 86.5,-466 86.5,-472 86.5,-472 86.5,-475 83.5,-478 80.5,-478"/>
<text text-anchor="middle" x="48" y="-466.8" font-family="Helvetica,sans-Serif" font-size="9.00">chordScales.ts</text>
</a>
</g>
</g>
<!-- chromaCenter.ts -->
<g id="node14" class="node">
<title>chromaCenter.ts</title>
<g id="a_node14"><a xlink:href="chromaCenter.ts" xlink:title="chromaCenter.ts">
<path fill="#ddfeff" stroke="black" d="M543,-596C543,-596 471,-596 471,-596 468,-596 465,-593 465,-590 465,-590 465,-584 465,-584 465,-581 468,-578 471,-578 471,-578 543,-578 543,-578 546,-578 549,-581 549,-584 549,-584 549,-590 549,-590 549,-593 546,-596 543,-596"/>
<text text-anchor="middle" x="507" y="-584.8" font-family="Helvetica,sans-Serif" font-size="9.00">chromaCenter.ts</text>
</a>
</g>
</g>
<!-- chromaChords.ts -->
<g id="node15" class="node">
<title>chromaChords.ts</title>
<g id="a_node15"><a xlink:href="chromaChords.ts" xlink:title="chromaChords.ts">
<path fill="#ddfeff" stroke="black" d="M329,-626C329,-626 255,-626 255,-626 252,-626 249,-623 249,-620 249,-620 249,-614 249,-614 249,-611 252,-608 255,-608 255,-608 329,-608 329,-608 332,-608 335,-611 335,-614 335,-614 335,-620 335,-620 335,-623 332,-626 329,-626"/>
<text text-anchor="middle" x="292" y="-614.8" font-family="Helvetica,sans-Serif" font-size="9.00">chromaChords.ts</text>
</a>
</g>
</g>
<!-- chromaChords.ts&#45;&gt;chordChroma.ts -->
<g id="edge10" class="edge">
<title>chromaChords.ts&#45;&gt;chordChroma.ts</title>
<path fill="none" stroke="#000000" stroke-width="2" stroke-opacity="0.200000" d="M335.14,-617C341.84,-617 348.8,-617 355.59,-617"/>
<polygon fill="#000000" fill-opacity="0.200000" stroke="#000000" stroke-width="2" stroke-opacity="0.200000" points="355.76,-619.1 361.76,-617 355.76,-614.9 355.76,-619.1"/>
</g>
<!-- chromaColor.ts -->
<g id="node16" class="node">
<title>chromaColor.ts</title>
<g id="a_node16"><a xlink:href="chromaColor.ts" xlink:title="chromaColor.ts">
<path fill="#ddfeff" stroke="black" d="M436.5,-596C436.5,-596 369.5,-596 369.5,-596 366.5,-596 363.5,-593 363.5,-590 363.5,-590 363.5,-584 363.5,-584 363.5,-581 366.5,-578 369.5,-578 369.5,-578 436.5,-578 436.5,-578 439.5,-578 442.5,-581 442.5,-584 442.5,-584 442.5,-590 442.5,-590 442.5,-593 439.5,-596 436.5,-596"/>
<text text-anchor="middle" x="403" y="-584.8" font-family="Helvetica,sans-Serif" font-size="9.00">chromaColor.ts</text>
</a>
</g>
</g>
<!-- chromaColor.ts&#45;&gt;chromaCenter.ts -->
<g id="edge11" class="edge">
<title>chromaColor.ts&#45;&gt;chromaCenter.ts</title>
<path fill="none" stroke="#000000" stroke-width="2" stroke-opacity="0.200000" d="M442.56,-587C447.75,-587 453.13,-587 458.45,-587"/>
<polygon fill="#000000" fill-opacity="0.200000" stroke="#000000" stroke-width="2" stroke-opacity="0.200000" points="458.66,-589.1 464.66,-587 458.66,-584.9 458.66,-589.1"/>
</g>
<!-- chromaDifference.ts -->
<g id="node17" class="node">
<title>chromaDifference.ts</title>
<g id="a_node17"><a xlink:href="chromaDifference.ts" xlink:title="chromaDifference.ts">
<path fill="#ddfeff" stroke="black" d="M446,-566C446,-566 360,-566 360,-566 357,-566 354,-563 354,-560 354,-560 354,-554 354,-554 354,-551 357,-548 360,-548 360,-548 446,-548 446,-548 449,-548 452,-551 452,-554 452,-554 452,-560 452,-560 452,-563 449,-566 446,-566"/>
<text text-anchor="middle" x="403" y="-554.8" font-family="Helvetica,sans-Serif" font-size="9.00">chromaDifference.ts</text>
</a>
</g>
</g>
<!-- chromaReflection.ts -->
<g id="node18" class="node">
<title>chromaReflection.ts</title>
<g id="a_node18"><a xlink:href="chromaReflection.ts" xlink:title="chromaReflection.ts">
<path fill="#ddfeff" stroke="black" d="M335,-506C335,-506 249,-506 249,-506 246,-506 243,-503 243,-500 243,-500 243,-494 243,-494 243,-491 246,-488 249,-488 249,-488 335,-488 335,-488 338,-488 341,-491 341,-494 341,-494 341,-500 341,-500 341,-503 338,-506 335,-506"/>
<text text-anchor="middle" x="292" y="-494.8" font-family="Helvetica,sans-Serif" font-size="9.00">chromaReflection.ts</text>
</a>
</g>
</g>
<!-- chromaScale.ts -->
<g id="node19" class="node">
<title>chromaScale.ts</title>
<g id="a_node19"><a xlink:href="chromaScale.ts" xlink:title="chromaScale.ts">
<path fill="#ddfeff" stroke="black" d="M326,-394C326,-394 258,-394 258,-394 255,-394 252,-391 252,-388 252,-388 252,-382 252,-382 252,-379 255,-376 258,-376 258,-376 326,-376 326,-376 329,-376 332,-379 332,-382 332,-382 332,-388 332,-388 332,-391 329,-394 326,-394"/>
<text text-anchor="middle" x="292" y="-382.8" font-family="Helvetica,sans-Serif" font-size="9.00">chromaScale.ts</text>
</a>
</g>
</g>
<!-- scaleChroma.ts -->
<g id="node20" class="node">
<title>scaleChroma.ts</title>
<g id="a_node20"><a xlink:href="scaleChroma.ts" xlink:title="scaleChroma.ts">
<path fill="#ddfeff" stroke="black" d="M437,-435C437,-435 369,-435 369,-435 366,-435 363,-432 363,-429 363,-429 363,-423 363,-423 363,-420 366,-417 369,-417 369,-417 437,-417 437,-417 440,-417 443,-420 443,-423 443,-423 443,-429 443,-429 443,-432 440,-435 437,-435"/>
<text text-anchor="middle" x="403" y="-423.8" font-family="Helvetica,sans-Serif" font-size="9.00">scaleChroma.ts</text>
</a>
</g>
</g>
<!-- chromaScale.ts&#45;&gt;scaleChroma.ts -->
<g id="edge12" class="edge">
<title>chromaScale.ts&#45;&gt;scaleChroma.ts</title>
<path fill="none" stroke="#000000" stroke-width="2" stroke-opacity="0.200000" d="M317.42,-394.15C324.98,-396.98 333.34,-400.12 341,-403 351.18,-406.83 362.32,-411.03 372.26,-414.77"/>
<polygon fill="#000000" fill-opacity="0.200000" stroke="#000000" stroke-width="2" stroke-opacity="0.200000" points="371.6,-416.77 377.96,-416.92 373.08,-412.84 371.6,-416.77"/>
</g>
<!-- chromaScales.ts -->
<g id="node21" class="node">
<title>chromaScales.ts</title>
<g id="a_node21"><a xlink:href="chromaScales.ts" xlink:title="chromaScales.ts">
<path fill="#ddfeff" stroke="black" d="M328,-536C328,-536 256,-536 256,-536 253,-536 250,-533 250,-530 250,-530 250,-524 250,-524 250,-521 253,-518 256,-518 256,-518 328,-518 328,-518 331,-518 334,-521 334,-524 334,-524 334,-530 334,-530 334,-533 331,-536 328,-536"/>
<text text-anchor="middle" x="292" y="-524.8" font-family="Helvetica,sans-Serif" font-size="9.00">chromaScales.ts</text>
</a>
</g>
</g>
<!-- chromaScales.ts&#45;&gt;scaleChroma.ts -->
<g id="edge13" class="edge">
<title>chromaScales.ts&#45;&gt;scaleChroma.ts</title>
<path fill="none" stroke="#000000" stroke-width="2" stroke-opacity="0.200000" d="M330.84,-517.82C334.43,-516.18 337.89,-514.26 341,-512 367.04,-493.08 386.08,-459.59 395.46,-440.46"/>
<polygon fill="#000000" fill-opacity="0.200000" stroke="#000000" stroke-width="2" stroke-opacity="0.200000" points="397.37,-441.34 398.05,-435.02 393.58,-439.53 397.37,-441.34"/>
</g>
<!-- chromaSymbols.ts -->
<g id="node22" class="node">
<title>chromaSymbols.ts</title>
<g id="a_node22"><a xlink:href="chromaSymbols.ts" xlink:title="chromaSymbols.ts">
<path fill="#ddfeff" stroke="black" d="M209.5,-581C209.5,-581 129.5,-581 129.5,-581 126.5,-581 123.5,-578 123.5,-575 123.5,-575 123.5,-569 123.5,-569 123.5,-566 126.5,-563 129.5,-563 129.5,-563 209.5,-563 209.5,-563 212.5,-563 215.5,-566 215.5,-569 215.5,-569 215.5,-575 215.5,-575 215.5,-578 212.5,-581 209.5,-581"/>
<text text-anchor="middle" x="169.5" y="-569.8" font-family="Helvetica,sans-Serif" font-size="9.00">chromaSymbols.ts</text>
</a>
</g>
</g>
<!-- chromaSymbols.ts&#45;&gt;chromaChords.ts -->
<g id="edge14" class="edge">
<title>chromaSymbols.ts&#45;&gt;chromaChords.ts</title>
<path fill="none" stroke="#000000" stroke-width="2" stroke-opacity="0.200000" d="M215.74,-577.31C222.65,-579.54 229.35,-582.66 235,-587 240.99,-591.6 237.18,-597.18 243,-602 244.24,-603.02 245.54,-603.98 246.9,-604.87"/>
<polygon fill="#000000" fill-opacity="0.200000" stroke="#000000" stroke-width="2" stroke-opacity="0.200000" points="246.12,-606.84 252.37,-607.98 248.2,-603.19 246.12,-606.84"/>
</g>
<!-- chromaSymbols.ts&#45;&gt;chromaScales.ts -->
<g id="edge15" class="edge">
<title>chromaSymbols.ts&#45;&gt;chromaScales.ts</title>
<path fill="none" stroke="#000000" stroke-width="2" stroke-opacity="0.200000" d="M190.93,-562.97C205.35,-556.74 225.2,-548.45 243,-542 246.81,-540.62 250.81,-539.25 254.81,-537.93"/>
<polygon fill="#000000" fill-opacity="0.200000" stroke="#000000" stroke-width="2" stroke-opacity="0.200000" points="255.59,-539.88 260.65,-536.03 254.29,-535.89 255.59,-539.88"/>
</g>
<!-- findCircularIndex.ts -->
<g id="node23" class="node">
<title>findCircularIndex.ts</title>
<g id="a_node23"><a xlink:href="findCircularIndex.ts" xlink:title="findCircularIndex.ts">
<path fill="#ddfeff" stroke="black" d="M444.5,-338C444.5,-338 361.5,-338 361.5,-338 358.5,-338 355.5,-335 355.5,-332 355.5,-332 355.5,-326 355.5,-326 355.5,-323 358.5,-320 361.5,-320 361.5,-320 444.5,-320 444.5,-320 447.5,-320 450.5,-323 450.5,-326 450.5,-326 450.5,-332 450.5,-332 450.5,-335 447.5,-338 444.5,-338"/>
<text text-anchor="middle" x="403" y="-326.8" font-family="Helvetica,sans-Serif" font-size="9.00">findCircularIndex.ts</text>
</a>
</g>
</g>
<!-- negativeHarmony.ts -->
<g id="node24" class="node">
<title>negativeHarmony.ts</title>
<g id="a_node24"><a xlink:href="negativeHarmony.ts" xlink:title="negativeHarmony.ts">
<path fill="#ddfeff" stroke="black" d="M212.5,-506C212.5,-506 126.5,-506 126.5,-506 123.5,-506 120.5,-503 120.5,-500 120.5,-500 120.5,-494 120.5,-494 120.5,-491 123.5,-488 126.5,-488 126.5,-488 212.5,-488 212.5,-488 215.5,-488 218.5,-491 218.5,-494 218.5,-494 218.5,-500 218.5,-500 218.5,-503 215.5,-506 212.5,-506"/>
<text text-anchor="middle" x="169.5" y="-494.8" font-family="Helvetica,sans-Serif" font-size="9.00">negativeHarmony.ts</text>
</a>
</g>
</g>
<!-- negativeHarmony.ts&#45;&gt;chromaReflection.ts -->
<g id="edge16" class="edge">
<title>negativeHarmony.ts&#45;&gt;chromaReflection.ts</title>
<path fill="none" stroke="#000000" stroke-width="2" stroke-opacity="0.200000" d="M218.82,-497C224.59,-497 230.51,-497 236.36,-497"/>
<polygon fill="#000000" fill-opacity="0.200000" stroke="#000000" stroke-width="2" stroke-opacity="0.200000" points="236.67,-499.1 242.67,-497 236.67,-494.9 236.67,-499.1"/>
</g>
<!-- nextOne.test.ts -->
<g id="node25" class="node">
<title>nextOne.test.ts</title>
<g id="a_node25"><a xlink:href="nextOne.test.ts" xlink:title="nextOne.test.ts">
<path fill="#ddfeff" stroke="black" d="M202,-337C202,-337 137,-337 137,-337 134,-337 131,-334 131,-331 131,-331 131,-325 131,-325 131,-322 134,-319 137,-319 137,-319 202,-319 202,-319 205,-319 208,-322 208,-325 208,-325 208,-331 208,-331 208,-334 205,-337 202,-337"/>
<text text-anchor="middle" x="169.5" y="-325.8" font-family="Helvetica,sans-Serif" font-size="9.00">nextOne.test.ts</text>
</a>
</g>
</g>
<!-- nextOne.ts -->
<g id="node26" class="node">
<title>nextOne.ts</title>
<g id="a_node26"><a xlink:href="nextOne.ts" xlink:title="nextOne.ts">
<path fill="#ddfeff" stroke="black" d="M316,-338C316,-338 268,-338 268,-338 265,-338 262,-335 262,-332 262,-332 262,-326 262,-326 262,-323 265,-320 268,-320 268,-320 316,-320 316,-320 319,-320 322,-323 322,-326 322,-326 322,-332 322,-332 322,-335 319,-338 316,-338"/>
<text text-anchor="middle" x="292" y="-326.8" font-family="Helvetica,sans-Serif" font-size="9.00">nextOne.ts</text>
</a>
</g>
</g>
<!-- nextOne.test.ts&#45;&gt;nextOne.ts -->
<g id="edge17" class="edge">
<title>nextOne.test.ts&#45;&gt;nextOne.ts</title>
<path fill="none" stroke="#000000" stroke-width="2" stroke-opacity="0.200000" d="M208.3,-328.31C223.39,-328.44 240.69,-328.58 255.55,-328.71"/>
<polygon fill="#000000" fill-opacity="0.200000" stroke="#000000" stroke-width="2" stroke-opacity="0.200000" points="255.73,-330.81 261.75,-328.76 255.77,-326.61 255.73,-330.81"/>
</g>
<!-- nextOne.ts&#45;&gt;findCircularIndex.ts -->
<g id="edge18" class="edge">
<title>nextOne.ts&#45;&gt;findCircularIndex.ts</title>
<path fill="none" stroke="#000000" stroke-width="2" stroke-opacity="0.200000" d="M322.21,-329C330.59,-329 340,-329 349.33,-329"/>
<polygon fill="#000000" fill-opacity="0.200000" stroke="#000000" stroke-width="2" stroke-opacity="0.200000" points="349.44,-331.1 355.44,-329 349.44,-326.9 349.44,-331.1"/>
</g>
<!-- nextRoot.ts -->
<g id="node27" class="node">
<title>nextRoot.ts</title>
<g id="a_node27"><a xlink:href="nextRoot.ts" xlink:title="nextRoot.ts">
<path fill="#ddfeff" stroke="black" d="M194.5,-307C194.5,-307 144.5,-307 144.5,-307 141.5,-307 138.5,-304 138.5,-301 138.5,-301 138.5,-295 138.5,-295 138.5,-292 141.5,-289 144.5,-289 144.5,-289 194.5,-289 194.5,-289 197.5,-289 200.5,-292 200.5,-295 200.5,-295 200.5,-301 200.5,-301 200.5,-304 197.5,-307 194.5,-307"/>
<text text-anchor="middle" x="169.5" y="-295.8" font-family="Helvetica,sans-Serif" font-size="9.00">nextRoot.ts</text>
</a>
</g>
</g>
<!-- nextRoot.ts&#45;&gt;scaleChroma.ts -->
<g id="edge21" class="edge">
<title>nextRoot.ts&#45;&gt;scaleChroma.ts</title>
<path fill="none" stroke="#000000" stroke-width="2" stroke-opacity="0.200000" d="M200.8,-290.67C243.93,-281.03 320.14,-267.17 341,-284 362.24,-301.13 344.1,-318.58 354,-344 363.81,-369.19 380.73,-395.73 391.64,-411.57"/>
<polygon fill="#000000" fill-opacity="0.200000" stroke="#000000" stroke-width="2" stroke-opacity="0.200000" points="390.2,-413.18 395.36,-416.9 393.65,-410.78 390.2,-413.18"/>
</g>
<!-- nextRoot.ts&#45;&gt;nextOne.ts -->
<g id="edge19" class="edge">
<title>nextRoot.ts&#45;&gt;nextOne.ts</title>
<path fill="none" stroke="#000000" stroke-width="2" stroke-opacity="0.200000" d="M200.76,-304.71C211.59,-307.2 223.87,-310.12 235,-313 241.67,-314.73 248.76,-316.67 255.57,-318.59"/>
<polygon fill="#000000" fill-opacity="0.200000" stroke="#000000" stroke-width="2" stroke-opacity="0.200000" points="255.38,-320.72 261.72,-320.34 256.52,-316.68 255.38,-320.72"/>
</g>
<!-- reorderChroma.ts -->
<g id="node28" class="node">
<title>reorderChroma.ts</title>
<g id="a_node28"><a xlink:href="reorderChroma.ts" xlink:title="reorderChroma.ts">
<path fill="#ddfeff" stroke="black" d="M330.5,-308C330.5,-308 253.5,-308 253.5,-308 250.5,-308 247.5,-305 247.5,-302 247.5,-302 247.5,-296 247.5,-296 247.5,-293 250.5,-290 253.5,-290 253.5,-290 330.5,-290 330.5,-290 333.5,-290 336.5,-293 336.5,-296 336.5,-296 336.5,-302 336.5,-302 336.5,-305 333.5,-308 330.5,-308"/>
<text text-anchor="middle" x="292" y="-296.8" font-family="Helvetica,sans-Serif" font-size="9.00">reorderChroma.ts</text>
</a>
</g>
</g>
<!-- nextRoot.ts&#45;&gt;reorderChroma.ts -->
<g id="edge20" class="edge">
<title>nextRoot.ts&#45;&gt;reorderChroma.ts</title>
<path fill="none" stroke="#000000" stroke-width="2" stroke-opacity="0.200000" d="M200.6,-298.25C212.81,-298.35 227.25,-298.47 240.96,-298.58"/>
<polygon fill="#000000" fill-opacity="0.200000" stroke="#000000" stroke-width="2" stroke-opacity="0.200000" points="241.18,-300.69 247.19,-298.64 241.21,-296.49 241.18,-300.69"/>
</g>
<!-- reorder.ts -->
<g id="node32" class="node">
<title>reorder.ts</title>
<g id="a_node32"><a xlink:href="reorder.ts" xlink:title="reorder.ts">
<path fill="#ddfeff" stroke="black" d="M425,-267C425,-267 381,-267 381,-267 378,-267 375,-264 375,-261 375,-261 375,-255 375,-255 375,-252 378,-249 381,-249 381,-249 425,-249 425,-249 428,-249 431,-252 431,-255 431,-255 431,-261 431,-261 431,-264 428,-267 425,-267"/>
<text text-anchor="middle" x="403" y="-255.8" font-family="Helvetica,sans-Serif" font-size="9.00">reorder.ts</text>
</a>
</g>
</g>
<!-- reorderChroma.ts&#45;&gt;reorder.ts -->
<g id="edge25" class="edge">
<title>reorderChroma.ts&#45;&gt;reorder.ts</title>
<path fill="none" stroke="#000000" stroke-width="2" stroke-opacity="0.200000" d="M317.19,-289.9C333.42,-283.8 354.91,-275.71 372.19,-269.21"/>
<polygon fill="#000000" fill-opacity="0.200000" stroke="#000000" stroke-width="2" stroke-opacity="0.200000" points="373,-271.15 377.88,-267.07 371.52,-267.22 373,-271.15"/>
</g>
<!-- oneOfModes.ts -->
<g id="node29" class="node">
<title>oneOfModes.ts</title>
<g id="a_node29"><a xlink:href="oneOfModes.ts" xlink:title="oneOfModes.ts">
<path fill="#ddfeff" stroke="black" d="M202.5,-611C202.5,-611 136.5,-611 136.5,-611 133.5,-611 130.5,-608 130.5,-605 130.5,-605 130.5,-599 130.5,-599 130.5,-596 133.5,-593 136.5,-593 136.5,-593 202.5,-593 202.5,-593 205.5,-593 208.5,-596 208.5,-599 208.5,-599 208.5,-605 208.5,-605 208.5,-608 205.5,-611 202.5,-611"/>
<text text-anchor="middle" x="169.5" y="-599.8" font-family="Helvetica,sans-Serif" font-size="9.00">oneOfModes.ts</text>
</a>
</g>
</g>
<!-- relatedScale.ts -->
<g id="node30" class="node">
<title>relatedScale.ts</title>
<g id="a_node30"><a xlink:href="relatedScale.ts" xlink:title="relatedScale.ts">
<path fill="#ddfeff" stroke="black" d="M202,-277C202,-277 137,-277 137,-277 134,-277 131,-274 131,-271 131,-271 131,-265 131,-265 131,-262 134,-259 137,-259 137,-259 202,-259 202,-259 205,-259 208,-262 208,-265 208,-265 208,-271 208,-271 208,-274 205,-277 202,-277"/>
<text text-anchor="middle" x="169.5" y="-265.8" font-family="Helvetica,sans-Serif" font-size="9.00">relatedScale.ts</text>
</a>
</g>
</g>
<!-- relatedScale.ts&#45;&gt;chromaScale.ts -->
<g id="edge22" class="edge">
<title>relatedScale.ts&#45;&gt;chromaScale.ts</title>
<path fill="none" stroke="#000000" stroke-width="2" stroke-opacity="0.200000" d="M208.26,-269.14C218.24,-271.3 228.13,-275.42 235,-283 253.36,-303.26 229.96,-319.97 243,-344 249.32,-355.65 260.38,-365.44 270.29,-372.53"/>
<polygon fill="#000000" fill-opacity="0.200000" stroke="#000000" stroke-width="2" stroke-opacity="0.200000" points="269.2,-374.33 275.34,-375.99 271.57,-370.86 269.2,-374.33"/>
</g>
<!-- relatedScale.ts&#45;&gt;scaleChroma.ts -->
<g id="edge23" class="edge">
<title>relatedScale.ts&#45;&gt;scaleChroma.ts</title>
<path fill="none" stroke="#000000" stroke-width="2" stroke-opacity="0.200000" d="M199.42,-258.96C236.82,-249.24 301.79,-239.34 341,-273 365.34,-293.9 342.84,-313.92 354,-344 363.49,-369.57 380.74,-396.31 391.77,-412.04"/>
<polygon fill="#000000" fill-opacity="0.200000" stroke="#000000" stroke-width="2" stroke-opacity="0.200000" points="390.06,-413.27 395.25,-416.94 393.49,-410.84 390.06,-413.27"/>
</g>
<!-- reorder.test.ts -->
<g id="node31" class="node">
<title>reorder.test.ts</title>
<g id="a_node31"><a xlink:href="reorder.test.ts" xlink:title="reorder.test.ts">
<path fill="#ddfeff" stroke="black" d="M322,-226C322,-226 262,-226 262,-226 259,-226 256,-223 256,-220 256,-220 256,-214 256,-214 256,-211 259,-208 262,-208 262,-208 322,-208 322,-208 325,-208 328,-211 328,-214 328,-214 328,-220 328,-220 328,-223 325,-226 322,-226"/>
<text text-anchor="middle" x="292" y="-214.8" font-family="Helvetica,sans-Serif" font-size="9.00">reorder.test.ts</text>
</a>
</g>
</g>
<!-- reorder.test.ts&#45;&gt;reorder.ts -->
<g id="edge24" class="edge">
<title>reorder.test.ts&#45;&gt;reorder.ts</title>
<path fill="none" stroke="#000000" stroke-width="2" stroke-opacity="0.200000" d="M317.42,-226.15C324.98,-228.98 333.34,-232.12 341,-235 351.18,-238.83 362.32,-243.03 372.26,-246.77"/>
<polygon fill="#000000" fill-opacity="0.200000" stroke="#000000" stroke-width="2" stroke-opacity="0.200000" points="371.6,-248.77 377.96,-248.92 373.08,-244.84 371.6,-248.77"/>
</g>
<!-- rotateChroma.ts -->
<g id="node33" class="node">
<title>rotateChroma.ts</title>
<g id="a_node33"><a xlink:href="rotateChroma.ts" xlink:title="rotateChroma.ts">
<path fill="#ccffcc" stroke="black" d="M83,-641C83,-641 13,-641 13,-641 10,-641 7,-638 7,-635 7,-635 7,-629 7,-629 7,-626 10,-623 13,-623 13,-623 83,-623 83,-623 86,-623 89,-626 89,-629 89,-629 89,-635 89,-635 89,-638 86,-641 83,-641"/>
<text text-anchor="middle" x="48" y="-629.8" font-family="Helvetica,sans-Serif" font-size="9.00">rotateChroma.ts</text>
</a>
</g>
</g>
<!-- rotateMode.ts -->
<g id="node34" class="node">
<title>rotateMode.ts</title>
<g id="a_node34"><a xlink:href="rotateMode.ts" xlink:title="rotateMode.ts">
<path fill="#ddfeff" stroke="black" d="M78,-298C78,-298 18,-298 18,-298 15,-298 12,-295 12,-292 12,-292 12,-286 12,-286 12,-283 15,-280 18,-280 18,-280 78,-280 78,-280 81,-280 84,-283 84,-286 84,-286 84,-292 84,-292 84,-295 81,-298 78,-298"/>
<text text-anchor="middle" x="48" y="-286.8" font-family="Helvetica,sans-Serif" font-size="9.00">rotateMode.ts</text>
</a>
</g>
</g>
<!-- rotateMode.ts&#45;&gt;nextRoot.ts -->
<g id="edge26" class="edge">
<title>rotateMode.ts&#45;&gt;nextRoot.ts</title>
<path fill="none" stroke="#000000" stroke-width="2" stroke-opacity="0.200000" d="M84.21,-291.65C99.27,-292.79 116.85,-294.11 132.04,-295.25"/>
<polygon fill="#000000" fill-opacity="0.200000" stroke="#000000" stroke-width="2" stroke-opacity="0.200000" points="132.25,-297.38 138.39,-295.73 132.57,-293.19 132.25,-297.38"/>
</g>
<!-- rotateMode.ts&#45;&gt;relatedScale.ts -->
<g id="edge27" class="edge">
<title>rotateMode.ts&#45;&gt;relatedScale.ts</title>
<path fill="none" stroke="#000000" stroke-width="2" stroke-opacity="0.200000" d="M84.21,-282.81C96.86,-280.59 111.3,-278.05 124.6,-275.71"/>
<polygon fill="#000000" fill-opacity="0.200000" stroke="#000000" stroke-width="2" stroke-opacity="0.200000" points="125.08,-277.76 130.63,-274.66 124.35,-273.63 125.08,-277.76"/>
</g>
<!-- rotateScale.ts -->
<g id="node35" class="node">
<title>rotateScale.ts</title>
<g id="a_node35"><a xlink:href="rotateScale.ts" xlink:title="rotateScale.ts">
<path fill="#ddfeff" stroke="black" d="M199.5,-367C199.5,-367 139.5,-367 139.5,-367 136.5,-367 133.5,-364 133.5,-361 133.5,-361 133.5,-355 133.5,-355 133.5,-352 136.5,-349 139.5,-349 139.5,-349 199.5,-349 199.5,-349 202.5,-349 205.5,-352 205.5,-355 205.5,-355 205.5,-361 205.5,-361 205.5,-364 202.5,-367 199.5,-367"/>
<text text-anchor="middle" x="169.5" y="-355.8" font-family="Helvetica,sans-Serif" font-size="9.00">rotateScale.ts</text>
</a>
</g>
</g>
<!-- rotateScale.ts&#45;&gt;chromaScale.ts -->
<g id="edge28" class="edge">
<title>rotateScale.ts&#45;&gt;chromaScale.ts</title>
<path fill="none" stroke="#000000" stroke-width="2" stroke-opacity="0.200000" d="M205.68,-365.88C218.21,-368.69 232.5,-371.89 245.75,-374.86"/>
<polygon fill="#000000" fill-opacity="0.200000" stroke="#000000" stroke-width="2" stroke-opacity="0.200000" points="245.45,-376.95 251.76,-376.21 246.37,-372.85 245.45,-376.95"/>
</g>
<!-- rotateScale.ts&#45;&gt;scaleChroma.ts -->
<g id="edge31" class="edge">
<title>rotateScale.ts&#45;&gt;scaleChroma.ts</title>
<path fill="none" stroke="#000000" stroke-width="2" stroke-opacity="0.200000" d="M205.72,-353.9C241.34,-351.23 297.25,-351.17 341,-370 361.98,-379.03 380.42,-398.43 391.39,-411.84"/>
<polygon fill="#000000" fill-opacity="0.200000" stroke="#000000" stroke-width="2" stroke-opacity="0.200000" points="389.97,-413.44 395.35,-416.83 393.26,-410.82 389.97,-413.44"/>
</g>
<!-- rotateScale.ts&#45;&gt;nextOne.ts -->
<g id="edge29" class="edge">
<title>rotateScale.ts&#45;&gt;nextOne.ts</title>
<path fill="none" stroke="#000000" stroke-width="2" stroke-opacity="0.200000" d="M205.67,-349.93C215.2,-347.72 225.5,-345.29 235,-343 241.71,-341.38 248.87,-339.62 255.74,-337.91"/>
<polygon fill="#000000" fill-opacity="0.200000" stroke="#000000" stroke-width="2" stroke-opacity="0.200000" points="256.64,-339.85 261.96,-336.36 255.63,-335.77 256.64,-339.85"/>
</g>
<!-- rotateScale.ts&#45;&gt;reorderChroma.ts -->
<g id="edge30" class="edge">
<title>rotateScale.ts&#45;&gt;reorderChroma.ts</title>
<path fill="none" stroke="#000000" stroke-width="2" stroke-opacity="0.200000" d="M205.6,-356.64C216.21,-354.58 227.12,-350.56 235,-343 244.64,-333.74 233.71,-323.61 243,-314 243.68,-313.29 244.4,-312.62 245.14,-311.98"/>
<polygon fill="#000000" fill-opacity="0.200000" stroke="#000000" stroke-width="2" stroke-opacity="0.200000" points="246.77,-313.39 250.42,-308.19 244.32,-309.98 246.77,-313.39"/>
</g>
<!-- rotateTonic.ts -->
<g id="node36" class="node">
<title>rotateTonic.ts</title>
<g id="a_node36"><a xlink:href="rotateTonic.ts" xlink:title="rotateTonic.ts">
<path fill="#ddfeff" stroke="black" d="M199,-408C199,-408 140,-408 140,-408 137,-408 134,-405 134,-402 134,-402 134,-396 134,-396 134,-393 137,-390 140,-390 140,-390 199,-390 199,-390 202,-390 205,-393 205,-396 205,-396 205,-402 205,-402 205,-405 202,-408 199,-408"/>
<text text-anchor="middle" x="169.5" y="-396.8" font-family="Helvetica,sans-Serif" font-size="9.00">rotateTonic.ts</text>
</a>
</g>
</g>
<!-- rotateTonic.ts&#45;&gt;chromaScale.ts -->
<g id="edge32" class="edge">
<title>rotateTonic.ts&#45;&gt;chromaScale.ts</title>
<path fill="none" stroke="#000000" stroke-width="2" stroke-opacity="0.200000" d="M205.03,-394.99C217.7,-393.52 232.23,-391.83 245.7,-390.26"/>
<polygon fill="#000000" fill-opacity="0.200000" stroke="#000000" stroke-width="2" stroke-opacity="0.200000" points="246.08,-392.33 251.8,-389.55 245.6,-388.16 246.08,-392.33"/>
</g>
<!-- rotateTonic.ts&#45;&gt;scaleChroma.ts -->
<g id="edge33" class="edge">
<title>rotateTonic.ts&#45;&gt;scaleChroma.ts</title>
<path fill="none" stroke="#000000" stroke-width="2" stroke-opacity="0.200000" d="M205.16,-403.04C245.51,-407.75 312.3,-415.54 356.73,-420.72"/>
<polygon fill="#000000" fill-opacity="0.200000" stroke="#000000" stroke-width="2" stroke-opacity="0.200000" points="356.64,-422.82 362.84,-421.43 357.12,-418.65 356.64,-422.82"/>
</g>
<!-- scaleColor.ts -->
<g id="node37" class="node">
<title>scaleColor.ts</title>
<g id="a_node37"><a xlink:href="scaleColor.ts" xlink:title="scaleColor.ts">
<path fill="#ddfeff" stroke="black" d="M321,-596C321,-596 263,-596 263,-596 260,-596 257,-593 257,-590 257,-590 257,-584 257,-584 257,-581 260,-578 263,-578 263,-578 321,-578 321,-578 324,-578 327,-581 327,-584 327,-584 327,-590 327,-590 327,-593 324,-596 321,-596"/>
<text text-anchor="middle" x="292" y="-584.8" font-family="Helvetica,sans-Serif" font-size="9.00">scaleColor.ts</text>
</a>
</g>
</g>
<!-- scaleColor.ts&#45;&gt;chromaColor.ts -->
<g id="edge34" class="edge">
<title>scaleColor.ts&#45;&gt;chromaColor.ts</title>
<path fill="none" stroke="#000000" stroke-width="2" stroke-opacity="0.200000" d="M327.19,-587C336.7,-587 347.18,-587 357.2,-587"/>
<polygon fill="#000000" fill-opacity="0.200000" stroke="#000000" stroke-width="2" stroke-opacity="0.200000" points="357.37,-589.1 363.37,-587 357.37,-584.9 357.37,-589.1"/>
</g>
<!-- scaleColor.ts&#45;&gt;scaleChroma.ts -->
<g id="edge35" class="edge">
<title>scaleColor.ts&#45;&gt;scaleChroma.ts</title>
<path fill="none" stroke="#000000" stroke-width="2" stroke-opacity="0.200000" d="M327.02,-580.49C332.12,-578.41 337,-575.65 341,-572 342.3,-570.81 380.68,-477.78 395.89,-440.86"/>
<polygon fill="#000000" fill-opacity="0.200000" stroke="#000000" stroke-width="2" stroke-opacity="0.200000" points="397.94,-441.39 398.28,-435.05 394.05,-439.79 397.94,-441.39"/>
</g>
<!-- scaleDifference.ts -->
<g id="node38" class="node">
<title>scaleDifference.ts</title>
<g id="a_node38"><a xlink:href="scaleDifference.ts" xlink:title="scaleDifference.ts">
<path fill="#ddfeff" stroke="black" d="M330.5,-566C330.5,-566 253.5,-566 253.5,-566 250.5,-566 247.5,-563 247.5,-560 247.5,-560 247.5,-554 247.5,-554 247.5,-551 250.5,-548 253.5,-548 253.5,-548 330.5,-548 330.5,-548 333.5,-548 336.5,-551 336.5,-554 336.5,-554 336.5,-560 336.5,-560 336.5,-563 333.5,-566 330.5,-566"/>
<text text-anchor="middle" x="292" y="-554.8" font-family="Helvetica,sans-Serif" font-size="9.00">scaleDifference.ts</text>
</a>
</g>
</g>
<!-- scaleDifference.ts&#45;&gt;chromaDifference.ts -->
<g id="edge36" class="edge">
<title>scaleDifference.ts&#45;&gt;chromaDifference.ts</title>
<path fill="none" stroke="#000000" stroke-width="2" stroke-opacity="0.200000" d="M336.71,-557C340.35,-557 344.06,-557 347.77,-557"/>
<polygon fill="#000000" fill-opacity="0.200000" stroke="#000000" stroke-width="2" stroke-opacity="0.200000" points="347.99,-559.1 353.99,-557 347.99,-554.9 347.99,-559.1"/>
</g>
<!-- scaleDifference.ts&#45;&gt;scaleChroma.ts -->
<g id="edge37" class="edge">
<title>scaleDifference.ts&#45;&gt;scaleChroma.ts</title>
<path fill="none" stroke="#000000" stroke-width="2" stroke-opacity="0.200000" d="M332.12,-547.76C335.3,-546.14 338.32,-544.24 341,-542 373.57,-514.85 391.05,-465.76 398.14,-441.06"/>
<polygon fill="#000000" fill-opacity="0.200000" stroke="#000000" stroke-width="2" stroke-opacity="0.200000" points="400.23,-441.4 399.8,-435.05 396.18,-440.28 400.23,-441.4"/>
</g>
<!-- scaleModes.ts -->
<g id="node39" class="node">
<title>scaleModes.ts</title>
<g id="a_node39"><a xlink:href="scaleModes.ts" xlink:title="scaleModes.ts">
<path fill="#ddfeff" stroke="black" d="M79.5,-611C79.5,-611 16.5,-611 16.5,-611 13.5,-611 10.5,-608 10.5,-605 10.5,-605 10.5,-599 10.5,-599 10.5,-596 13.5,-593 16.5,-593 16.5,-593 79.5,-593 79.5,-593 82.5,-593 85.5,-596 85.5,-599 85.5,-599 85.5,-605 85.5,-605 85.5,-608 82.5,-611 79.5,-611"/>
<text text-anchor="middle" x="48" y="-599.8" font-family="Helvetica,sans-Serif" font-size="9.00">scaleModes.ts</text>
</a>
</g>
</g>
<!-- scaleModes.ts&#45;&gt;oneOfModes.ts -->
<g id="edge38" class="edge">
<title>scaleModes.ts&#45;&gt;oneOfModes.ts</title>
<path fill="none" stroke="#000000" stroke-width="2" stroke-opacity="0.200000" d="M85.5,-602C97.65,-602 111.33,-602 124.01,-602"/>
<polygon fill="#000000" fill-opacity="0.200000" stroke="#000000" stroke-width="2" stroke-opacity="0.200000" points="124.15,-604.1 130.15,-602 124.15,-599.9 124.15,-604.1"/>
</g>
<!-- scaleReflection.ts -->
<g id="node40" class="node">
<title>scaleReflection.ts</title>
<g id="a_node40"><a xlink:href="scaleReflection.ts" xlink:title="scaleReflection.ts">
<path fill="#ddfeff" stroke="black" d="M208,-448C208,-448 131,-448 131,-448 128,-448 125,-445 125,-442 125,-442 125,-436 125,-436 125,-433 128,-430 131,-430 131,-430 208,-430 208,-430 211,-430 214,-433 214,-436 214,-436 214,-442 214,-442 214,-445 211,-448 208,-448"/>
<text text-anchor="middle" x="169.5" y="-436.8" font-family="Helvetica,sans-Serif" font-size="9.00">scaleReflection.ts</text>
</a>
</g>
</g>
<!-- scaleReflection.ts&#45;&gt;chromaReflection.ts -->
<g id="edge39" class="edge">
<title>scaleReflection.ts&#45;&gt;chromaReflection.ts</title>
<path fill="none" stroke="#000000" stroke-width="2" stroke-opacity="0.200000" d="M183.63,-448.06C197.78,-457.51 221.21,-472.29 243,-482 246.04,-483.35 249.24,-484.64 252.48,-485.84"/>
<polygon fill="#000000" fill-opacity="0.200000" stroke="#000000" stroke-width="2" stroke-opacity="0.200000" points="251.99,-487.89 258.35,-487.92 253.39,-483.94 251.99,-487.89"/>
</g>
<!-- scaleReflection.ts&#45;&gt;chromaScale.ts -->
<g id="edge40" class="edge">
<title>scaleReflection.ts&#45;&gt;chromaScale.ts</title>
<path fill="none" stroke="#000000" stroke-width="2" stroke-opacity="0.200000" d="M195.88,-429.89C207.87,-425.4 222.3,-419.73 235,-414 246.45,-408.83 258.89,-402.47 269.13,-397.02"/>
<polygon fill="#000000" fill-opacity="0.200000" stroke="#000000" stroke-width="2" stroke-opacity="0.200000" points="270.27,-398.79 274.57,-394.11 268.29,-395.09 270.27,-398.79"/>
</g>
<!-- scaleReflection.ts&#45;&gt;scaleChroma.ts -->
<g id="edge41" class="edge">
<title>scaleReflection.ts&#45;&gt;scaleChroma.ts</title>
<path fill="none" stroke="#000000" stroke-width="2" stroke-opacity="0.200000" d="M214.04,-436.55C254.78,-434.27 315.39,-430.86 356.69,-428.54"/>
<polygon fill="#000000" fill-opacity="0.200000" stroke="#000000" stroke-width="2" stroke-opacity="0.200000" points="357.02,-430.63 362.89,-428.2 356.78,-426.44 357.02,-430.63"/>
</g>
<!-- transposeScale.ts -->
<g id="node42" class="node">
<title>transposeScale.ts</title>
<g id="a_node42"><a xlink:href="transposeScale.ts" xlink:title="transposeScale.ts">
<path fill="#ddfeff" stroke="black" d="M330.5,-476C330.5,-476 253.5,-476 253.5,-476 250.5,-476 247.5,-473 247.5,-470 247.5,-470 247.5,-464 247.5,-464 247.5,-461 250.5,-458 253.5,-458 253.5,-458 330.5,-458 330.5,-458 333.5,-458 336.5,-461 336.5,-464 336.5,-464 336.5,-470 336.5,-470 336.5,-473 333.5,-476 330.5,-476"/>
<text text-anchor="middle" x="292" y="-464.8" font-family="Helvetica,sans-Serif" font-size="9.00">transposeScale.ts</text>
</a>
</g>
</g>
<!-- transposeScale.ts&#45;&gt;scaleChroma.ts -->
<g id="edge43" class="edge">
<title>transposeScale.ts&#45;&gt;scaleChroma.ts</title>
<path fill="none" stroke="#000000" stroke-width="2" stroke-opacity="0.200000" d="M317.42,-457.85C324.98,-455.02 333.34,-451.88 341,-449 351.18,-445.17 362.32,-440.97 372.26,-437.23"/>
<polygon fill="#000000" fill-opacity="0.200000" stroke="#000000" stroke-width="2" stroke-opacity="0.200000" points="373.08,-439.16 377.96,-435.08 371.6,-435.23 373.08,-439.16"/>
</g>
</g>
</svg>
